# xmcd CD database file
#
# Track frame offsets:
#	150
#	13674
#	30866
#	41256
#	58538
#	67192
#	86799
#	100624
#	118713
#	170623
#	174955
#	199194
#	202934
#	237243
#	266330
#	279342
#	308681
#
# Disc length: 4429 seconds
#
# Revision: 0
# Processed by: cddbd v1.5.1PL0 Copyright (c) Steve Scherf et al.
# Submitted via: CDex 1.51
#
DISCID=d8114b11
DTITLE=Tom Waits - Nighthawks at the Diner
DYEAR=1975
DGENRE=Blues
TTITLE0=Opening Intro
TTITLE1=Emotional Wheater Report
TTITLE2=Intro
TTITLE3=On A Foggy Night
TTITLE4=Intro
TTITLE5=Eggs and Sausage (In a Cadillac with Susan Michelson)
TTITLE6=Intro
TTITLE7=Better Off Without A Wife
TTITLE8=Nighthawk Postcard
TTITLE9=Intro
TTITLE10=Warm Beer And Cold Women
TTITLE11=Intro
TTITLE12=Putnam County
TTITLE13=Space Parts I (A Nocturnal Emission)
TTITLE14=Nobody
TTITLE15=Big Joe and Phantom 309
TTITLE16=Space Parts II And Closing
EXTD=YEAR: 1975
EXTT0=
EXTT1=
EXTT2=
EXTT3=
EXTT4=
EXTT5=
EXTT6=
EXTT7=
EXTT8=
EXTT9=
EXTT10=
EXTT11=
EXTT12=
EXTT13=
EXTT14=
EXTT15=
EXTT16=
PLAYORDER=
